<svg width="157" height="75" viewBox="0 0 157 75" fill="none" xmlns="http://www.w3.org/2000/svg">
<path d="M81.0842 15.9024V8.73438C81.0842 5.56737 83.6516 3 86.8186 3H148.463C151.63 3 154.198 5.56737 154.198 8.73438V48.8751C154.198 52.0421 151.63 54.6094 148.463 54.6094H138.428L141.782 70.2603C142.075 71.6282 140.436 72.563 139.408 71.6141L124.092 57.4766H86.8186C83.6516 57.4766 81.0842 54.9093 81.0842 51.7422V48.8751" stroke="url(#paint0_linear_2_61)" stroke-width="4.30079"/>
<path d="M40.86 26.4C40.992 26.4 41.106 26.448 41.202 26.544C41.298 26.64 41.346 26.754 41.346 26.886V29.784C41.346 29.916 41.298 30.03 41.202 30.126C41.106 30.222 40.992 30.27 40.86 30.27H36.99V38.514C36.99 38.646 36.942 38.76 36.846 38.856C36.75 38.952 36.636 39 36.504 39H32.796C32.664 39 32.55 38.952 32.454 38.856C32.358 38.76 32.31 38.646 32.31 38.514V30.27H28.44C28.308 30.27 28.194 30.222 28.098 30.126C28.002 30.03 27.954 29.916 27.954 29.784V26.886C27.954 26.754 28.002 26.64 28.098 26.544C28.194 26.448 28.308 26.4 28.44 26.4H40.86Z" fill="black"/>
<path d="M55.482 35.49C55.614 35.49 55.728 35.538 55.824 35.634C55.92 35.73 55.968 35.844 55.968 35.976V38.514C55.968 38.646 55.92 38.76 55.824 38.856C55.728 38.952 55.614 39 55.482 39H44.106C43.974 39 43.86 38.952 43.764 38.856C43.668 38.76 43.62 38.646 43.62 38.514V26.886C43.62 26.754 43.668 26.64 43.764 26.544C43.86 26.448 43.974 26.4 44.106 26.4H55.302C55.434 26.4 55.548 26.448 55.644 26.544C55.74 26.64 55.788 26.754 55.788 26.886V29.424C55.788 29.556 55.74 29.67 55.644 29.766C55.548 29.862 55.434 29.91 55.302 29.91H48.3V31.044H54.312C54.444 31.044 54.558 31.092 54.654 31.188C54.75 31.284 54.798 31.398 54.798 31.53V33.87C54.798 34.002 54.75 34.116 54.654 34.212C54.558 34.308 54.444 34.356 54.312 34.356H48.3V35.49H55.482Z" fill="black"/>
<path d="M62.058 38.388C61.902 38.796 61.632 39 61.248 39H57.846C57.738 39 57.642 38.964 57.558 38.892C57.486 38.808 57.45 38.712 57.45 38.604L57.468 38.496L61.392 26.994C61.44 26.838 61.53 26.7 61.662 26.58C61.794 26.46 61.974 26.4 62.202 26.4H67.206C67.434 26.4 67.614 26.46 67.746 26.58C67.878 26.7 67.968 26.838 68.016 26.994L71.94 38.496L71.958 38.604C71.958 38.712 71.916 38.808 71.832 38.892C71.76 38.964 71.67 39 71.562 39H68.16C67.776 39 67.506 38.796 67.35 38.388L66.9 37.128H62.508L62.058 38.388ZM64.704 29.874L63.426 33.618H65.982L64.704 29.874Z" fill="black"/>
<path d="M100.644 26.4C100.776 26.4 100.89 26.448 100.986 26.544C101.082 26.64 101.13 26.754 101.13 26.886V38.514C101.13 38.646 101.082 38.76 100.986 38.856C100.89 38.952 100.776 39 100.644 39H96.936C96.804 39 96.69 38.952 96.594 38.856C96.498 38.76 96.45 38.646 96.45 38.514V34.68H92.85V38.514C92.85 38.646 92.802 38.76 92.706 38.856C92.61 38.952 92.496 39 92.364 39H88.656C88.524 39 88.41 38.958 88.314 38.874C88.218 38.778 88.17 38.658 88.17 38.514V26.886C88.17 26.754 88.218 26.64 88.314 26.544C88.41 26.448 88.524 26.4 88.656 26.4H92.364C92.496 26.4 92.61 26.448 92.706 26.544C92.802 26.64 92.85 26.754 92.85 26.886V30.576H96.45V26.886C96.45 26.754 96.498 26.64 96.594 26.544C96.69 26.448 96.804 26.4 96.936 26.4H100.644Z" fill="black"/>
<path d="M121.008 26.886C121.188 26.562 121.446 26.4 121.782 26.4H125.076C125.208 26.4 125.322 26.448 125.418 26.544C125.514 26.64 125.562 26.754 125.562 26.886V38.514C125.562 38.646 125.514 38.76 125.418 38.856C125.322 38.952 125.208 39 125.076 39H121.818C121.686 39 121.572 38.952 121.476 38.856C121.38 38.76 121.332 38.646 121.332 38.514V32.934L120.018 35.526C119.982 35.61 119.898 35.706 119.766 35.814C119.634 35.922 119.466 35.976 119.262 35.976H118.038C117.834 35.976 117.666 35.922 117.534 35.814C117.402 35.706 117.318 35.61 117.282 35.526L115.968 32.934V38.514C115.968 38.646 115.92 38.76 115.824 38.856C115.728 38.952 115.614 39 115.482 39H112.224C112.092 39 111.978 38.952 111.882 38.856C111.786 38.76 111.738 38.646 111.738 38.514V26.886C111.738 26.754 111.786 26.64 111.882 26.544C111.978 26.448 112.092 26.4 112.224 26.4H115.518C115.854 26.4 116.112 26.562 116.292 26.886L118.65 31.206L121.008 26.886Z" fill="url(#paint1_linear_2_61)"/>
<path d="M140.482 35.49C140.614 35.49 140.728 35.538 140.824 35.634C140.92 35.73 140.968 35.844 140.968 35.976V38.514C140.968 38.646 140.92 38.76 140.824 38.856C140.728 38.952 140.614 39 140.482 39H129.106C128.974 39 128.86 38.952 128.764 38.856C128.668 38.76 128.62 38.646 128.62 38.514V26.886C128.62 26.754 128.668 26.64 128.764 26.544C128.86 26.448 128.974 26.4 129.106 26.4H140.302C140.434 26.4 140.548 26.448 140.644 26.544C140.74 26.64 140.788 26.754 140.788 26.886V29.424C140.788 29.556 140.74 29.67 140.644 29.766C140.548 29.862 140.434 29.91 140.302 29.91H133.3V31.044H139.312C139.444 31.044 139.558 31.092 139.654 31.188C139.75 31.284 139.798 31.398 139.798 31.53V33.87C139.798 34.002 139.75 34.116 139.654 34.212C139.558 34.308 139.444 34.356 139.312 34.356H133.3V35.49H140.482Z" fill="url(#paint2_linear_2_61)"/>
<path d="M77.994 34.14C77.994 34.632 78.156 35.01 78.48 35.274C78.816 35.538 79.266 35.67 79.83 35.67C80.334 35.67 80.706 35.586 80.946 35.418C81.186 35.25 81.39 34.998 81.558 34.662C81.714 34.35 81.924 34.194 82.188 34.194H86.076C86.184 34.194 86.274 34.236 86.346 34.32C86.43 34.392 86.472 34.482 86.472 34.59C86.472 35.322 86.226 36.042 85.734 36.75C85.242 37.446 84.492 38.028 83.484 38.496C82.488 38.952 81.27 39.18 79.83 39.18C78.546 39.18 77.4 38.988 76.392 38.604C75.396 38.208 74.604 37.608 74.016 36.804C73.428 35.988 73.134 34.974 73.134 33.762V31.638C73.134 30.426 73.428 29.418 74.016 28.614C74.604 27.798 75.396 27.198 76.392 26.814C77.4 26.418 78.546 26.22 79.83 26.22C81.27 26.22 82.488 26.454 83.484 26.922C84.492 27.378 85.242 27.96 85.734 28.668C86.226 29.364 86.472 30.078 86.472 30.81C86.472 30.918 86.43 31.014 86.346 31.098C86.274 31.17 86.184 31.206 86.076 31.206H82.188C81.924 31.206 81.714 31.05 81.558 30.738C81.39 30.402 81.186 30.15 80.946 29.982C80.706 29.814 80.334 29.73 79.83 29.73C79.266 29.73 78.816 29.862 78.48 30.126C78.156 30.39 77.994 30.768 77.994 31.26V34.14Z" fill="black"/>
<defs>
<linearGradient id="paint0_linear_2_61" x1="81.0842" y1="3" x2="141.295" y2="77.547" gradientUnits="userSpaceOnUse">
<stop stop-color="#D7DBFF"/>
<stop offset="1" stop-color="#485BFF"/>
</linearGradient>
<linearGradient id="paint1_linear_2_61" x1="119" y1="22" x2="119" y2="44" gradientUnits="userSpaceOnUse">
<stop stop-color="#737380"/>
<stop offset="1" stop-color="#2C39A7"/>
</linearGradient>
<linearGradient id="paint2_linear_2_61" x1="135" y1="22" x2="135" y2="44" gradientUnits="userSpaceOnUse">
<stop stop-color="#737380"/>
<stop offset="1" stop-color="#2C39A7"/>
</linearGradient>
</defs>
</svg>
